<svg version="1.1" id="Layer_1" xmlns="http://www.w3.org/2000/svg" xmlns:xlink="http://www.w3.org/1999/xlink" x="0px" y="0px"
	 width="100%" viewBox="0 0 3264 3264" enable-background="new 0 0 3264 3264" xml:space="preserve">
<path fill="#000000" opacity="1.000000" stroke="none" 
	d="
M1498.000000,3266.000000 
	C998.666748,3266.000000 500.333527,3266.000000 2.000201,3266.000000 
	C2.000134,2178.000244 2.000134,1090.000610 2.000067,2.000638 
	C1089.999512,2.000426 2177.999023,2.000426 3265.999023,2.000213 
	C3265.999268,1089.999390 3265.999268,2177.998779 3265.999512,3265.999023 
	C2677.000000,3266.000000 2088.000000,3266.000000 1498.000000,3266.000000 
M2596.169189,2133.080322 
	C2627.381348,2130.646729 2657.724609,2123.952393 2687.627441,2114.853271 
	C2731.707764,2101.439697 2772.652832,2081.476318 2810.630127,2055.579834 
	C2848.416016,2029.813721 2882.189453,1999.424927 2912.453369,1965.074341 
	C2946.222168,1926.744873 2973.735840,1884.535889 2993.864014,1837.510254 
	C3006.515869,1807.951172 3016.344971,1777.575928 3021.782959,1745.859009 
	C3024.575195,1729.575928 3028.554688,1713.298828 3029.247070,1696.902954 
	C3030.140625,1675.745972 3033.249756,1654.571045 3030.413086,1633.259644 
	C3028.839600,1621.438232 3028.800293,1609.421265 3027.693848,1597.527222 
	C3025.210449,1570.829346 3019.778564,1544.741943 3012.641602,1518.858398 
	C3003.788086,1486.749023 2990.974121,1456.371338 2975.405029,1427.116577 
	C2944.213623,1368.507324 2901.117188,1319.465820 2850.857666,1276.781494 
	C2815.865723,1247.063354 2777.237793,1222.528320 2734.633301,1204.830566 
	C2727.703613,1201.952148 2721.168945,1198.165894 2712.961914,1198.181885 
	C2600.298096,1198.402100 2487.633789,1198.309326 2374.969482,1198.419067 
	C2371.074951,1198.422852 2366.917969,1199.084961 2363.330078,1200.541016 
	C2338.487061,1210.622314 2314.588623,1222.515869 2291.772461,1236.739502 
	C2240.431885,1268.745728 2196.841064,1309.348389 2159.478271,1356.540405 
	C2128.298584,1395.922729 2103.718750,1439.303711 2086.685303,1486.755371 
	C2078.890869,1508.469727 2072.167236,1530.475708 2068.293945,1553.266846 
	C2066.473877,1563.977905 2064.499756,1574.674927 2063.115967,1585.445068 
	C2061.265381,1599.849487 2058.756592,1614.307373 2058.617188,1628.762451 
	C2058.380615,1653.340942 2059.771484,1677.935059 2060.479004,1702.522583 
	C2060.498291,1703.186646 2060.435547,1703.866943 2060.557373,1704.511963 
	C2064.223389,1723.903687 2068.002441,1743.274780 2071.563232,1762.685791 
	C2075.128418,1782.120850 2081.203857,1800.794556 2088.135498,1819.234741 
	C2095.450439,1838.694824 2103.711426,1857.662231 2113.744629,1875.953247 
	C2129.126953,1903.996338 2146.365234,1930.768677 2167.097168,1955.059326 
	C2199.338135,1992.834595 2235.103271,2026.783691 2276.240479,2055.078613 
	C2306.477051,2075.876221 2338.945557,2092.054199 2372.684570,2105.887695 
	C2394.774170,2114.944824 2417.872314,2121.148926 2441.273682,2125.669189 
	C2459.119629,2129.116211 2477.233887,2132.450928 2495.324219,2133.079346 
	C2528.281006,2134.224121 2561.308838,2133.323486 2596.169189,2133.080322 
M421.742645,1303.255981 
	C418.050385,1299.913208 414.366577,1296.561035 410.664612,1293.229004 
	C377.287842,1263.187622 343.889648,1233.169922 310.556824,1203.079834 
	C307.185760,1200.036743 303.635284,1198.239990 298.957428,1198.281982 
	C283.295685,1198.422729 267.630585,1198.215088 251.969391,1198.382324 
	C243.913162,1198.468384 242.335205,1200.313110 242.013245,1208.615234 
	C241.935822,1210.611694 241.997360,1212.613892 241.997345,1214.613403 
	C241.997131,1281.931030 242.186768,1349.249878 241.783371,1416.565186 
	C241.725967,1426.146362 244.623779,1432.755005 251.715164,1438.948242 
	C275.997833,1460.155762 299.860840,1481.843750 323.887024,1503.344971 
	C349.610687,1526.365234 375.338318,1549.381104 401.063293,1572.399780 
	C433.484619,1601.410767 465.952911,1630.369507 498.309906,1659.452026 
	C522.054565,1680.793823 545.560730,1702.401245 569.336792,1723.707520 
	C609.406250,1759.614990 649.638000,1795.341309 689.740417,1831.212158 
	C724.642456,1862.431641 759.474792,1893.729126 794.311218,1925.021729 
	C834.102600,1960.765381 873.893738,1996.509399 913.630737,2032.313599 
	C948.898926,2064.091309 984.065186,2095.982178 1019.373596,2127.715088 
	C1021.998657,2130.074219 1025.277710,2132.892578 1028.472778,2133.198730 
	C1036.625122,2133.979248 1044.901978,2133.458740 1053.721191,2133.458740 
	C1053.721191,1821.387085 1053.721191,1510.677612 1053.721191,1199.259644 
	C1050.382446,1198.921631 1047.471191,1198.372437 1044.559570,1198.369873 
	C987.239563,1198.319458 929.919495,1198.303345 872.599670,1198.404785 
	C869.149414,1198.410889 865.700989,1199.456665 861.457642,1200.148071 
	C861.457642,1366.093750 861.457642,1531.112793 861.457642,1697.655151 
	C858.876587,1695.750122 857.572998,1694.944458 856.452209,1693.935669 
	C847.562195,1685.935547 838.744629,1677.854614 829.833862,1669.877808 
	C806.584167,1649.064941 783.220825,1628.378662 760.046265,1607.482788 
	C730.921631,1581.221924 702.026062,1554.706909 672.871033,1528.480103 
	C644.706909,1503.144653 616.274719,1478.107056 588.076294,1452.809326 
	C554.199158,1422.417114 520.468445,1391.861816 486.628357,1361.428101 
	C465.382477,1342.320801 444.052338,1323.307129 421.742645,1303.255981 
M1585.000244,1553.668335 
	C1485.361084,1553.673706 1385.721924,1553.680176 1286.082764,1553.683716 
	C1258.424072,1553.684692 1230.765137,1553.625732 1203.106689,1553.704590 
	C1194.707031,1553.728516 1194.116211,1554.476318 1193.835938,1562.850220 
	C1193.791382,1564.181763 1193.828247,1565.515991 1193.828247,1566.848999 
	C1193.829224,1623.168335 1193.825317,1679.487793 1193.834839,1735.807129 
	C1193.837158,1749.662354 1193.857422,1749.668945 1207.580811,1749.669067 
	C1417.861938,1749.670410 1628.143188,1749.670166 1838.424316,1749.667969 
	C1841.089966,1749.667969 1843.771851,1749.820068 1846.417358,1749.581299 
	C1850.608521,1749.203003 1852.945435,1746.568970 1853.524292,1742.560181 
	C1853.854370,1740.273438 1853.625000,1737.903931 1853.625122,1735.571777 
	C1853.627686,1679.918945 1853.626953,1624.266113 1853.627075,1568.613281 
	C1853.627075,1566.613770 1853.776978,1564.601318 1853.602661,1562.617188 
	C1853.107666,1556.984619 1850.395630,1554.198242 1844.923584,1553.709473 
	C1842.940430,1553.532471 1840.927246,1553.695679 1838.927856,1553.695435 
	C1754.952026,1553.686890 1670.976074,1553.677612 1585.000244,1553.668335 
M1193.898315,2098.196045 
	C1193.871704,2107.195312 1193.765625,2116.195557 1193.843506,2125.193848 
	C1193.908081,2132.645020 1194.503906,2133.177734 1201.637695,2133.408203 
	C1202.969360,2133.451172 1204.303955,2133.402344 1205.637207,2133.402344 
	C1417.299194,2133.402344 1628.961304,2133.402832 1840.623291,2133.405029 
	C1842.289673,2133.405029 1843.957397,2133.398682 1845.622070,2133.460693 
	C1850.574463,2133.645508 1852.843506,2130.753906 1853.536987,2126.338135 
	C1853.843872,2124.384277 1853.631470,2122.346680 1853.631470,2120.347168 
	C1853.634033,2064.681641 1853.487061,2009.015503 1853.776733,1953.351562 
	C1853.825317,1944.011353 1851.655029,1940.123535 1840.375122,1940.140625 
	C1684.045654,1940.376709 1527.715698,1940.346313 1371.385986,1940.156128 
	C1363.858276,1940.146973 1358.265625,1942.193237 1352.785889,1947.358154 
	C1331.264160,1967.643433 1309.358276,1987.521240 1287.595703,2007.551025 
	C1257.270508,2035.462158 1226.928223,2063.354492 1196.681152,2091.350098 
	C1195.353027,2092.579346 1194.900146,2094.753662 1193.898315,2098.196045 
M1516.999756,1362.276978 
	C1517.666382,1362.238525 1518.333130,1362.166138 1518.999756,1362.166260 
	C1626.431763,1362.183105 1733.863892,1362.210205 1841.295898,1362.218994 
	C1851.547485,1362.219727 1853.275024,1360.486694 1853.619263,1350.151489 
	C1853.685791,1348.154785 1853.630005,1346.154053 1853.630005,1344.155151 
	C1853.630005,1301.511230 1853.630005,1258.867432 1853.629761,1216.223511 
	C1853.629761,1198.331665 1853.629395,1198.327637 1836.165405,1198.327515 
	C1629.942261,1198.326660 1423.719116,1198.326904 1217.495972,1198.328491 
	C1214.830933,1198.328613 1212.093628,1197.974976 1209.520996,1198.468262 
	C1206.930420,1198.965088 1204.503296,1200.313965 1201.355957,1201.542847 
	C1203.074951,1203.834229 1203.742554,1204.980713 1204.646606,1205.892822 
	C1254.485840,1256.179810 1304.373169,1306.419189 1354.149292,1356.768433 
	C1358.211426,1360.877075 1362.596558,1362.338745 1368.315063,1362.316162 
	C1417.209473,1362.122925 1466.104736,1362.179688 1516.999756,1362.276978 
z"/>
<path fill="#FEFEFE" opacity="1.000000" stroke="none" 
	d="
M2595.238037,2133.178223 
	C2561.308838,2133.323486 2528.281006,2134.224121 2495.324219,2133.079346 
	C2477.233887,2132.450928 2459.119629,2129.116211 2441.273682,2125.669189 
	C2417.872314,2121.148926 2394.774170,2114.944824 2372.684570,2105.887695 
	C2338.945557,2092.054199 2306.477051,2075.876221 2276.240479,2055.078613 
	C2235.103271,2026.783691 2199.338135,1992.834595 2167.097168,1955.059326 
	C2146.365234,1930.768677 2129.126953,1903.996338 2113.744629,1875.953247 
	C2103.711426,1857.662231 2095.450439,1838.694824 2088.135498,1819.234741 
	C2081.203857,1800.794556 2075.128418,1782.120850 2071.563232,1762.685791 
	C2068.002441,1743.274780 2064.223389,1723.903687 2060.557373,1704.511963 
	C2060.435547,1703.866943 2060.498291,1703.186646 2060.479004,1702.522583 
	C2059.771484,1677.935059 2058.380615,1653.340942 2058.617188,1628.762451 
	C2058.756592,1614.307373 2061.265381,1599.849487 2063.115967,1585.445068 
	C2064.499756,1574.674927 2066.473877,1563.977905 2068.293945,1553.266846 
	C2072.167236,1530.475708 2078.890869,1508.469727 2086.685303,1486.755371 
	C2103.718750,1439.303711 2128.298584,1395.922729 2159.478271,1356.540405 
	C2196.841064,1309.348389 2240.431885,1268.745728 2291.772461,1236.739502 
	C2314.588623,1222.515869 2338.487061,1210.622314 2363.330078,1200.541016 
	C2366.917969,1199.084961 2371.074951,1198.422852 2374.969482,1198.419067 
	C2487.633789,1198.309326 2600.298096,1198.402100 2712.961914,1198.181885 
	C2721.168945,1198.165894 2727.703613,1201.952148 2734.633301,1204.830566 
	C2777.237793,1222.528320 2815.865723,1247.063354 2850.857666,1276.781494 
	C2901.117188,1319.465820 2944.213623,1368.507324 2975.405029,1427.116577 
	C2990.974121,1456.371338 3003.788086,1486.749023 3012.641602,1518.858398 
	C3019.778564,1544.741943 3025.210449,1570.829346 3027.693848,1597.527222 
	C3028.800293,1609.421265 3028.839600,1621.438232 3030.413086,1633.259644 
	C3033.249756,1654.571045 3030.140625,1675.745972 3029.247070,1696.902954 
	C3028.554688,1713.298828 3024.575195,1729.575928 3021.782959,1745.859009 
	C3016.344971,1777.575928 3006.515869,1807.951172 2993.864014,1837.510254 
	C2973.735840,1884.535889 2946.222168,1926.744873 2912.453369,1965.074341 
	C2882.189453,1999.424927 2848.416016,2029.813721 2810.630127,2055.579834 
	C2772.652832,2081.476318 2731.707764,2101.439697 2687.627441,2114.853271 
	C2657.724609,2123.952393 2627.381348,2130.646729 2595.238037,2133.178223 
M2289.091797,1510.208496 
	C2270.698975,1543.418579 2259.488770,1579.009766 2256.273926,1616.726074 
	C2253.306641,1651.535522 2254.301025,1686.405518 2261.768066,1720.730469 
	C2267.202393,1745.712524 2275.811523,1769.630615 2288.414062,1791.978149 
	C2303.676758,1819.042847 2322.195312,1843.522583 2345.475830,1864.309204 
	C2362.101074,1879.153442 2379.525879,1892.845093 2398.774414,1904.166992 
	C2421.385742,1917.467285 2445.697998,1926.060059 2471.163818,1932.165039 
	C2491.870117,1937.128784 2512.562500,1940.724365 2533.909180,1939.693115 
	C2535.897461,1939.596924 2537.899902,1939.847778 2539.895508,1939.838257 
	C2553.525146,1939.773926 2567.344971,1941.076050 2580.735596,1939.245972 
	C2597.243652,1936.990112 2613.447510,1932.335327 2629.686279,1928.326172 
	C2651.928955,1922.834473 2672.952881,1914.078247 2692.297363,1901.886597 
	C2732.713623,1876.413696 2766.544922,1843.952148 2792.080322,1803.448364 
	C2808.884277,1776.795044 2820.214600,1747.908325 2826.836426,1716.834595 
	C2831.077881,1696.932983 2832.981201,1676.880615 2833.843262,1656.878296 
	C2834.591797,1639.513428 2831.536621,1621.940430 2829.645020,1604.515625 
	C2826.552002,1576.027466 2817.445801,1549.247437 2804.627197,1523.807251 
	C2775.790771,1466.578003 2731.733887,1423.896118 2676.226562,1392.957153 
	C2640.670898,1373.138916 2601.481689,1364.891968 2561.257568,1362.558594 
	C2529.748535,1360.730835 2498.457764,1363.584839 2467.542725,1371.054077 
	C2443.815186,1376.786621 2421.808838,1386.338013 2400.875977,1398.305786 
	C2353.971436,1425.122192 2317.690674,1462.862061 2289.091797,1510.208496 
z"/>
<path fill="#FEFEFE" opacity="1.000000" stroke="none" 
	d="
M422.251312,1303.753662 
	C444.052338,1323.307129 465.382477,1342.320801 486.628357,1361.428101 
	C520.468445,1391.861816 554.199158,1422.417114 588.076294,1452.809326 
	C616.274719,1478.107056 644.706909,1503.144653 672.871033,1528.480103 
	C702.026062,1554.706909 730.921631,1581.221924 760.046265,1607.482788 
	C783.220825,1628.378662 806.584167,1649.064941 829.833862,1669.877808 
	C838.744629,1677.854614 847.562195,1685.935547 856.452209,1693.935669 
	C857.572998,1694.944458 858.876587,1695.750122 861.457642,1697.655151 
	C861.457642,1531.112793 861.457642,1366.093750 861.457642,1200.148071 
	C865.700989,1199.456665 869.149414,1198.410889 872.599670,1198.404785 
	C929.919495,1198.303345 987.239563,1198.319458 1044.559570,1198.369873 
	C1047.471191,1198.372437 1050.382446,1198.921631 1053.721191,1199.259644 
	C1053.721191,1510.677612 1053.721191,1821.387085 1053.721191,2133.458740 
	C1044.901978,2133.458740 1036.625122,2133.979248 1028.472778,2133.198730 
	C1025.277710,2132.892578 1021.998657,2130.074219 1019.373596,2127.715088 
	C984.065186,2095.982178 948.898926,2064.091309 913.630737,2032.313599 
	C873.893738,1996.509399 834.102600,1960.765381 794.311218,1925.021729 
	C759.474792,1893.729126 724.642456,1862.431641 689.740417,1831.212158 
	C649.638000,1795.341309 609.406250,1759.614990 569.336792,1723.707520 
	C545.560730,1702.401245 522.054565,1680.793823 498.309906,1659.452026 
	C465.952911,1630.369507 433.484619,1601.410767 401.063293,1572.399780 
	C375.338318,1549.381104 349.610687,1526.365234 323.887024,1503.344971 
	C299.860840,1481.843750 275.997833,1460.155762 251.715164,1438.948242 
	C244.623779,1432.755005 241.725967,1426.146362 241.783371,1416.565186 
	C242.186768,1349.249878 241.997131,1281.931030 241.997345,1214.613403 
	C241.997360,1212.613892 241.935822,1210.611694 242.013245,1208.615234 
	C242.335205,1200.313110 243.913162,1198.468384 251.969391,1198.382324 
	C267.630585,1198.215088 283.295685,1198.422729 298.957428,1198.281982 
	C303.635284,1198.239990 307.185760,1200.036743 310.556824,1203.079834 
	C343.889648,1233.169922 377.287842,1263.187622 410.664612,1293.229004 
	C414.366577,1296.561035 418.050385,1299.913208 422.251312,1303.753662 
z"/>
<path fill="#FEFEFE" opacity="1.000000" stroke="none" 
	d="
M1586.000244,1553.668457 
	C1670.976074,1553.677612 1754.952026,1553.686890 1838.927856,1553.695435 
	C1840.927246,1553.695679 1842.940430,1553.532471 1844.923584,1553.709473 
	C1850.395630,1554.198242 1853.107666,1556.984619 1853.602661,1562.617188 
	C1853.776978,1564.601318 1853.627075,1566.613770 1853.627075,1568.613281 
	C1853.626953,1624.266113 1853.627686,1679.918945 1853.625122,1735.571777 
	C1853.625000,1737.903931 1853.854370,1740.273438 1853.524292,1742.560181 
	C1852.945435,1746.568970 1850.608521,1749.203003 1846.417358,1749.581299 
	C1843.771851,1749.820068 1841.089966,1749.667969 1838.424316,1749.667969 
	C1628.143188,1749.670166 1417.861938,1749.670410 1207.580811,1749.669067 
	C1193.857422,1749.668945 1193.837158,1749.662354 1193.834839,1735.807129 
	C1193.825317,1679.487793 1193.829224,1623.168335 1193.828247,1566.848999 
	C1193.828247,1565.515991 1193.791382,1564.181763 1193.835938,1562.850220 
	C1194.116211,1554.476318 1194.707031,1553.728516 1203.106689,1553.704590 
	C1230.765137,1553.625732 1258.424072,1553.684692 1286.082764,1553.683716 
	C1385.721924,1553.680176 1485.361084,1553.673706 1586.000244,1553.668457 
z"/>
<path fill="#FDFDFD" opacity="1.000000" stroke="none" 
	d="
M1193.968872,2097.341797 
	C1194.900146,2094.753662 1195.353027,2092.579346 1196.681152,2091.350098 
	C1226.928223,2063.354492 1257.270508,2035.462158 1287.595703,2007.551025 
	C1309.358276,1987.521240 1331.264160,1967.643433 1352.785889,1947.358154 
	C1358.265625,1942.193237 1363.858276,1940.146973 1371.385986,1940.156128 
	C1527.715698,1940.346313 1684.045654,1940.376709 1840.375122,1940.140625 
	C1851.655029,1940.123535 1853.825317,1944.011353 1853.776733,1953.351562 
	C1853.487061,2009.015503 1853.634033,2064.681641 1853.631470,2120.347168 
	C1853.631470,2122.346680 1853.843872,2124.384277 1853.536987,2126.338135 
	C1852.843506,2130.753906 1850.574463,2133.645508 1845.622070,2133.460693 
	C1843.957397,2133.398682 1842.289673,2133.405029 1840.623291,2133.405029 
	C1628.961304,2133.402832 1417.299194,2133.402344 1205.637207,2133.402344 
	C1204.303955,2133.402344 1202.969360,2133.451172 1201.637695,2133.408203 
	C1194.503906,2133.177734 1193.908081,2132.645020 1193.843506,2125.193848 
	C1193.765625,2116.195557 1193.871704,2107.195312 1193.968872,2097.341797 
z"/>
<path fill="#FDFDFD" opacity="1.000000" stroke="none" 
	d="
M1515.999756,1362.219238 
	C1466.104736,1362.179688 1417.209473,1362.122925 1368.315063,1362.316162 
	C1362.596558,1362.338745 1358.211426,1360.877075 1354.149292,1356.768433 
	C1304.373169,1306.419189 1254.485840,1256.179810 1204.646606,1205.892822 
	C1203.742554,1204.980713 1203.074951,1203.834229 1201.355957,1201.542847 
	C1204.503296,1200.313965 1206.930420,1198.965088 1209.520996,1198.468262 
	C1212.093628,1197.974976 1214.830933,1198.328613 1217.495972,1198.328491 
	C1423.719116,1198.326904 1629.942261,1198.326660 1836.165405,1198.327515 
	C1853.629395,1198.327637 1853.629761,1198.331665 1853.629761,1216.223511 
	C1853.630005,1258.867432 1853.630005,1301.511230 1853.630005,1344.155151 
	C1853.630005,1346.154053 1853.685791,1348.154785 1853.619263,1350.151489 
	C1853.275024,1360.486694 1851.547485,1362.219727 1841.295898,1362.218994 
	C1733.863892,1362.210205 1626.431763,1362.183105 1518.999756,1362.166260 
	C1518.333130,1362.166138 1517.666382,1362.238525 1515.999756,1362.219238 
z"/>
<path fill="#000000" opacity="1.000000" stroke="none" 
	d="
M2289.477539,1509.581055 
	C2317.690674,1462.862061 2353.971436,1425.122192 2400.875977,1398.305786 
	C2421.808838,1386.338013 2443.815186,1376.786621 2467.542725,1371.054077 
	C2498.457764,1363.584839 2529.748535,1360.730835 2561.257568,1362.558594 
	C2601.481689,1364.891968 2640.670898,1373.138916 2676.226562,1392.957153 
	C2731.733887,1423.896118 2775.790771,1466.578003 2804.627197,1523.807251 
	C2817.445801,1549.247437 2826.552002,1576.027466 2829.645020,1604.515625 
	C2831.536621,1621.940430 2834.591797,1639.513428 2833.843262,1656.878296 
	C2832.981201,1676.880615 2831.077881,1696.932983 2826.836426,1716.834595 
	C2820.214600,1747.908325 2808.884277,1776.795044 2792.080322,1803.448364 
	C2766.544922,1843.952148 2732.713623,1876.413696 2692.297363,1901.886597 
	C2672.952881,1914.078247 2651.928955,1922.834473 2629.686279,1928.326172 
	C2613.447510,1932.335327 2597.243652,1936.990112 2580.735596,1939.245972 
	C2567.344971,1941.076050 2553.525146,1939.773926 2539.895508,1939.838257 
	C2537.899902,1939.847778 2535.897461,1939.596924 2533.909180,1939.693115 
	C2512.562500,1940.724365 2491.870117,1937.128784 2471.163818,1932.165039 
	C2445.697998,1926.060059 2421.385742,1917.467285 2398.774414,1904.166992 
	C2379.525879,1892.845093 2362.101074,1879.153442 2345.475830,1864.309204 
	C2322.195312,1843.522583 2303.676758,1819.042847 2288.414062,1791.978149 
	C2275.811523,1769.630615 2267.202393,1745.712524 2261.768066,1720.730469 
	C2254.301025,1686.405518 2253.306641,1651.535522 2256.273926,1616.726074 
	C2259.488770,1579.009766 2270.698975,1543.418579 2289.477539,1509.581055 
z"/>
</svg>